<?xml version="1.0" standalone="no"?>
<!DOCTYPE svg PUBLIC "-//W3C//DTD SVG 20010904//EN"
 "http://www.w3.org/TR/2001/REC-SVG-20010904/DTD/svg10.dtd">
<svg version="1.0" xmlns="http://www.w3.org/2000/svg"
 width="500.000000pt" height="600.000000pt" viewBox="0 0 500.000000 600.000000"
 preserveAspectRatio="xMidYMid meet">
<metadata>
Created by potrace 1.16, written by Peter Selinger 2001-2019
</metadata>
<g transform="translate(0.000000,600.000000) scale(0.100000,-0.100000)"
fill="#000000" stroke="none">
<g>
<path d="M0 4065 c0 -1064 4 -1935 8 -1935 5 0 17 9 28 21 20 22 71 51 113 64
20 6 23 4 18 -10 -6 -14 -2 -14 27 4 21 14 50 21 80 21 30 0 45 4 41 10 -4 6
10 17 30 26 30 12 40 13 53 2 13 -11 14 -11 4 9 -10 19 -9 20 8 16 12 -3 20 0
20 6 0 7 4 10 8 7 4 -2 39 4 77 14 39 11 79 20 91 20 12 0 31 9 44 20 22 19
35 24 53 21 5 -1 6 2 3 7 -3 5 18 17 47 27 81 29 245 107 321 154 110 68 329
188 388 212 31 13 68 39 89 62 35 41 35 41 15 61 -12 12 -24 20 -28 19 -10 -4
-122 112 -158 162 -57 80 -141 226 -162 283 -12 31 -32 74 -45 94 -17 27 -23
53 -23 93 0 30 -4 55 -10 55 -5 0 -10 11 -10 25 0 14 -4 25 -10 25 -6 0 -10
27 -10 63 0 39 4 57 9 48 6 -10 12 -3 21 24 7 20 18 39 26 42 8 3 14 13 14 22
0 14 -2 14 -10 1 -8 -13 -10 -12 -10 3 0 9 7 17 16 17 10 0 14 5 10 16 -3 8
-2 12 4 9 6 -3 10 -13 10 -21 0 -10 9 -6 26 13 15 15 21 20 14 11 -7 -10 -10
-18 -6 -18 4 0 -1 -12 -10 -26 -13 -19 -19 -22 -25 -12 -6 9 -9 9 -9 1 0 -6 5
-15 12 -19 7 -5 5 -11 -7 -21 -11 -7 -15 -13 -11 -13 5 0 3 -7 -4 -15 -7 -9
-9 -19 -5 -23 4 -4 10 -2 12 4 2 6 10 20 19 30 12 15 11 11 -2 -24 -16 -43
-12 -70 7 -42 7 11 8 7 4 -15 -3 -16 15 12 40 64 25 51 48 91 51 88 3 -2 -4
-21 -16 -42 -12 -21 -19 -39 -17 -41 5 -6 35 39 47 71 5 14 14 25 20 25 6 0 9
4 5 9 -7 12 43 135 65 159 9 9 22 33 30 52 7 19 21 42 30 51 9 9 23 38 30 63
9 35 17 46 28 41 12 -4 12 -3 3 9 -6 7 -9 22 -6 32 4 11 -3 3 -14 -16 -23 -39
-26 -37 -10 8 5 16 18 32 28 35 12 3 26 27 41 73 13 38 27 75 33 82 14 18 27
15 20 -5 -5 -15 -4 -16 8 -5 11 10 11 16 1 32 -13 22 -8 56 14 99 8 14 14 29
14 33 0 4 14 22 30 40 17 18 28 39 25 46 -3 7 -1 11 3 8 5 -3 18 15 30 40 22
45 30 73 11 42 -5 -9 -16 -15 -23 -12 -8 3 -23 -7 -35 -22 -31 -39 -26 -19 6
24 24 33 25 35 4 17 -26 -23 -53 -70 -45 -78 4 -3 -3 -19 -15 -35 -12 -17 -21
-36 -21 -44 -1 -15 -29 -68 -30 -54 0 5 -7 3 -15 -4 -25 -21 -25 -8 -1 50 17
43 26 54 41 52 19 -2 19 -2 2 12 -12 9 -14 16 -8 21 6 3 11 16 11 27 0 27 -11
16 -27 -25 -12 -32 -12 -32 -7 11 2 24 11 57 20 73 8 17 13 33 10 36 -3 3 -9
-3 -13 -13 -4 -10 -16 -34 -27 -53 -18 -30 -21 -32 -32 -16 -10 13 -10 20 -1
30 7 7 15 11 19 9 4 -2 10 1 14 7 4 8 3 9 -4 5 -7 -4 -12 -2 -12 3 0 6 6 11
14 11 13 0 26 20 26 41 0 14 -20 11 -20 -3 -1 -15 -50 -78 -50 -64 0 5 10 24
21 43 18 29 20 37 8 45 -11 8 -10 9 3 4 12 -3 22 2 29 16 8 16 8 19 -1 13 -18
-11 -3 30 31 86 16 25 29 51 29 56 0 6 7 17 17 24 9 8 24 32 34 54 18 42 78
115 169 207 60 61 220 188 237 188 6 0 18 6 26 14 22 23 150 79 179 79 15 0
34 -6 43 -13 16 -13 16 -15 1 -26 -15 -10 -15 -14 -2 -27 11 -11 12 -17 3 -26
-9 -9 -9 -11 3 -7 47 14 80 15 80 1 0 -8 -8 -15 -17 -16 -16 0 -16 -1 1 -8 14
-5 16 -10 8 -15 -25 -16 -11 -28 26 -23 20 3 29 3 19 1 -16 -5 -25 -25 -9 -23
30 5 35 -3 12 -21 -25 -21 -25 -21 2 -9 15 6 34 9 43 5 15 -5 15 -9 4 -22 -7
-9 -24 -20 -37 -25 -14 -5 -22 -12 -19 -16 3 -3 22 4 41 15 25 15 33 17 29 6
-4 -10 0 -13 13 -8 11 3 6 -2 -9 -11 -35 -20 -30 -30 7 -16 29 12 37 -4 14
-28 -11 -10 -9 -11 6 -5 15 6 17 4 11 -6 -6 -10 -4 -11 6 -4 8 4 23 10 34 11
15 3 13 -3 -12 -23 -18 -14 -33 -34 -33 -44 0 -10 -12 -33 -27 -51 -27 -32
-27 -32 7 -13 82 46 135 74 140 74 3 0 -7 -11 -22 -25 -15 -14 -32 -25 -37
-25 -6 0 -15 -10 -22 -22 -11 -21 -11 -21 17 -1 45 31 52 34 58 24 3 -5 -14
-21 -39 -35 -25 -15 -45 -29 -45 -31 0 -12 72 6 98 25 25 19 34 21 46 11 8 -7
12 -19 9 -27 -4 -12 0 -13 23 -4 29 10 29 10 8 -7 -12 -10 -30 -24 -40 -30
-11 -7 4 -3 31 8 50 20 50 20 15 -13 -19 -19 -38 -32 -42 -30 -5 2 -8 -3 -8
-10 0 -7 -16 -24 -35 -38 -19 -14 -42 -36 -51 -50 -13 -20 -9 -18 19 8 39 38
64 27 28 -12 -12 -12 -21 -28 -21 -34 0 -7 -3 -12 -8 -12 -8 0 -88 -99 -116
-145 -26 -43 -126 -156 -223 -253 -58 -58 -83 -90 -83 -107 0 -13 -5 -36 -11
-52 -18 -43 -19 -72 -4 -81 12 -6 9 -16 -15 -52 -17 -25 -30 -50 -30 -56 0 -6
-16 -26 -35 -45 -19 -19 -35 -40 -35 -46 0 -7 -4 -13 -10 -13 -5 0 -10 -5 -10
-12 0 -9 3 -9 12 0 18 18 37 15 34 -5 -2 -10 -14 -21 -27 -24 -24 -7 -24 -7
-1 -14 18 -6 22 -14 20 -49 -1 -41 -1 -41 -5 -4 -4 31 -9 38 -33 43 -16 4 -39
3 -51 0 -17 -6 -21 -4 -16 8 4 12 2 14 -10 10 -12 -5 -14 -15 -9 -50 4 -30 2
-42 -5 -38 -6 4 -9 1 -8 -6 4 -18 -10 -60 -26 -79 -12 -14 -19 -38 -31 -105
-2 -16 -9 -43 -14 -60 -5 -16 -8 -142 -7 -280 2 -250 2 -250 34 -330 18 -44
48 -102 66 -130 36 -53 42 -98 14 -103 -8 -2 -35 3 -58 11 -39 13 -46 13 -65
-2 -12 -9 -22 -18 -22 -21 1 -22 -18 -50 -33 -50 -12 0 -19 -7 -19 -17 1 -52
36 -172 93 -316 36 -89 68 -187 72 -217 12 -96 45 -210 82 -284 43 -85 114
-269 193 -501 32 -93 75 -215 95 -270 72 -199 276 -874 317 -1050 35 -152 27
-145 164 -145 68 0 124 4 124 9 0 5 9 85 20 178 49 428 70 861 70 1458 0 281
1 517 2 525 5 52 -4 53 -33 2 -17 -28 -32 -52 -34 -52 -4 0 16 88 40 175 9 33
22 132 30 220 13 160 13 160 51 200 22 22 62 58 89 80 80 64 135 124 193 214
67 102 164 313 197 429 31 106 48 278 41 432 -3 71 -1 120 5 120 5 0 9 5 9 11
0 5 -4 7 -10 4 -5 -3 -10 -1 -10 4 0 6 13 11 29 11 16 0 31 4 33 10 2 6 8 6
18 0 12 -8 13 -11 1 -19 -9 -6 -10 -11 -2 -15 16 -10 31 2 31 24 0 46 35 30
44 -20 4 -19 11 -46 16 -60 5 -14 14 -44 20 -66 5 -23 17 -45 25 -48 13 -4 13
-2 5 14 -8 14 -6 21 5 27 14 8 13 14 -1 56 -9 27 -14 51 -11 54 10 9 37 -99
31 -124 -5 -19 -2 -25 15 -30 11 -3 21 -13 21 -22 0 -9 7 -29 15 -45 8 -15 15
-36 16 -45 0 -12 2 -11 8 4 5 12 4 23 -3 27 -8 6 -8 8 1 8 6 0 9 9 6 21 -5 16
-8 18 -15 7 -5 -8 -6 -4 -3 13 5 19 2 28 -9 32 -9 4 -16 14 -15 24 0 14 2 15
6 3 13 -33 43 -39 43 -8 0 12 3 19 6 15 8 -8 23 -75 18 -80 -3 -2 -6 -71 -8
-153 -4 -169 -22 -275 -66 -384 -38 -91 -143 -250 -215 -322 -71 -72 -223
-151 -332 -173 -43 -9 -42 -21 2 -29 19 -4 79 -25 132 -48 187 -78 269 -101
586 -168 82 -17 174 -42 205 -55 31 -13 78 -29 104 -35 129 -34 192 -156 228
-443 6 -49 28 -143 50 -210 50 -159 51 -164 54 -357 4 -200 16 -315 50 -480
54 -267 67 -363 67 -493 0 -112 3 -139 28 -220 16 -51 34 -118 41 -149 10 -51
14 -58 36 -58 24 0 24 0 24 3000 0 3000 0 3000 -2500 3000 -2500 0 -2500 0
-2500 -1935z m2960 1590 c0 5 8 1 18 -8 10 -10 21 -15 24 -12 2 3 24 -13 47
-35 23 -22 49 -40 57 -40 8 0 13 -4 10 -9 -3 -5 7 -14 22 -20 22 -9 28 -18 26
-40 -1 -17 7 -38 20 -52 12 -13 20 -32 18 -41 -2 -11 3 -18 12 -18 9 0 16 -7
16 -15 0 -8 4 -15 8 -15 10 0 32 -39 36 -62 1 -10 14 -27 29 -38 15 -12 27
-31 27 -43 0 -12 11 -34 25 -49 14 -15 25 -38 25 -52 0 -14 5 -28 11 -32 8 -5
10 1 7 20 -3 14 -1 26 3 26 5 0 9 -13 9 -30 0 -17 -5 -30 -12 -30 -9 0 -9 -3
0 -12 10 -10 15 -10 21 0 7 11 10 10 15 -3 3 -9 10 -13 16 -10 6 4 7 11 4 17
-4 6 1 6 14 -1 28 -15 42 -14 36 3 -3 8 -12 12 -19 10 -17 -7 -27 10 -19 30 4
11 10 13 18 8 6 -5 21 -12 34 -15 22 -5 23 -5 8 18 -9 14 -16 33 -16 45 0 11
-4 20 -8 20 -11 0 -162 178 -162 190 0 6 -5 10 -11 10 -5 0 -8 4 -5 9 3 5 -6
16 -20 26 -14 9 -23 19 -20 22 9 9 56 -17 94 -52 45 -40 132 -158 132 -179 0
-9 7 -19 15 -22 8 -4 12 -10 10 -15 -3 -4 4 -27 16 -50 11 -23 22 -53 24 -66
1 -13 10 -30 20 -37 17 -12 16 -13 -5 -12 -13 1 -25 -6 -27 -14 -4 -12 -3 -12
5 -1 7 9 12 10 16 2 4 -6 12 -8 18 -5 6 4 6 -1 -1 -14 -8 -16 -7 -21 4 -26 9
-3 12 -12 9 -23 -5 -15 -4 -16 5 -3 9 12 11 10 11 -12 0 -15 5 -30 10 -33 7
-4 9 -32 6 -68 -2 -34 -1 -55 2 -47 3 8 11 -4 18 -30 16 -54 17 -73 4 -65 -20
13 -9 -21 15 -43 13 -13 27 -40 30 -60 3 -20 12 -50 20 -67 8 -16 17 -61 21
-100 4 -38 8 -81 10 -95 1 -14 5 -47 9 -75 3 -27 8 -55 10 -62 2 -7 -2 -25
-11 -40 -14 -28 -14 -28 -20 -5 -10 34 -31 25 -25 -10 0 -5 -4 -8 -9 -8 -6 0
-10 5 -10 11 0 6 -6 9 -14 6 -9 -4 -17 1 -19 11 -2 9 -3 -1 -2 -23 1 -31 5
-40 18 -39 9 1 17 -3 17 -8 0 -5 -8 -8 -17 -6 -26 5 -47 56 -48 118 -2 71 -34
229 -51 255 -8 11 -14 33 -14 50 0 30 -38 156 -60 200 -5 11 -26 74 -46 140
-20 66 -41 123 -47 127 -9 5 -9 10 1 20 6 6 11 21 11 33 -1 15 -2 16 -6 3 -2
-9 -10 -19 -18 -22 -21 -8 -70 99 -68 149 2 32 1 35 -6 15 -7 -25 -7 -25 -19
-2 -10 17 -10 22 0 22 6 0 3 7 -8 16 -13 11 -15 17 -6 20 17 8 15 25 -2 18
-11 -4 -24 14 -46 61 -33 71 -72 116 -99 114 -10 0 -12 -2 -3 -6 6 -2 12 -11
12 -18 0 -7 7 -16 16 -19 9 -3 14 -12 11 -20 -3 -7 -1 -18 4 -23 11 -11 -68 7
-88 20 -7 5 -17 6 -22 2 -5 -3 -12 -1 -16 5 -4 6 8 10 29 10 20 0 36 5 36 10
0 6 -13 10 -30 10 -21 0 -30 5 -30 16 0 8 -4 12 -10 9 -5 -3 -18 -1 -27 4 -10
6 -12 11 -5 11 6 0 12 4 12 10 0 5 -7 7 -15 4 -9 -4 -15 0 -15 9 0 8 6 18 13
20 6 3 -1 6 -18 6 -23 1 -27 4 -15 11 12 8 10 10 -10 11 -14 0 -19 3 -10 6 43
14 40 18 -15 23 -60 6 -60 6 -11 20 46 12 48 14 30 26 -27 19 -61 47 -47 40 6
-3 22 -2 35 3 21 9 21 10 3 12 -11 1 -24 3 -30 4 -5 2 -17 4 -25 5 -8 1 -4 5
10 10 24 7 24 7 -10 18 -35 10 -35 10 -5 12 17 1 24 4 17 7 -6 2 -9 9 -6 14 3
6 11 5 20 -2 8 -6 14 -8 14 -4z m238 -460 c-1 -36 -4 -43 -15 -34 -7 6 -13 7
-13 3 0 -12 -43 -30 -105 -45 -27 -6 -60 -15 -72 -20 -30 -11 -40 7 -17 32 9
10 13 19 8 19 -5 0 -22 -16 -37 -35 -26 -33 -25 -49 1 -23 8 8 12 8 12 1 0 -6
-16 -18 -35 -28 -27 -12 -42 -14 -63 -6 -17 6 -21 10 -9 10 9 1 17 4 17 9 0 4
16 16 35 26 25 14 32 22 23 28 -11 6 -11 8 0 8 7 0 36 16 65 35 28 19 56 35
62 35 5 0 -5 -9 -22 -20 -18 -11 -33 -22 -33 -25 0 -6 51 16 70 31 8 6 33 15
54 19 29 5 36 9 25 16 -10 6 -5 9 18 9 30 0 31 -1 31 -45z m516 -495 c5 -23 4
-30 -2 -20 -6 8 -13 31 -16 50 -5 23 -4 30 2 20 6 -8 13 -31 16 -50z m92 -128
c15 -44 11 -69 -6 -42 -6 8 -10 10 -10 4 0 -6 3 -14 7 -18 4 -3 8 -17 10 -29
3 -22 3 -22 -13 2 -18 25 -22 45 -30 141 -4 55 -4 55 12 20 8 -19 22 -55 30
-78z m-2421 -184 c-13 -44 -37 -88 -48 -88 -5 0 -3 8 6 18 10 10 17 30 17 43
0 14 5 30 12 37 17 17 20 15 13 -10z m1025 -218 c-95 -5 -137 -12 -174 -29
-57 -25 -73 -27 -57 -7 10 12 52 26 116 40 11 2 70 4 130 3 110 0 110 0 -15
-7z m-1112 -79 c-7 -29 -15 -39 -28 -38 -11 1 -16 7 -13 15 5 11 7 11 14 1 5
-9 10 -4 15 17 7 30 13 44 19 44 1 0 -2 -18 -7 -39z m1261 23 c6 -5 4 -21 -3
-40 -12 -27 -19 -30 -59 -32 -49 -3 -77 15 -77 48 0 31 113 51 139 24z m-186
-9 c-36 -15 -45 -30 -13 -22 11 3 20 1 20 -4 0 -5 -6 -9 -14 -9 -7 0 -27 -7
-42 -15 -34 -18 -58 -20 -48 -4 10 17 96 69 113 69 9 -1 1 -7 -16 -15z m941
-20 c-4 -8 -1 -15 5 -15 6 0 11 5 11 10 0 6 7 10 15 10 20 0 19 -30 -1 -59
-15 -20 -23 -23 -66 -19 -56 6 -54 5 -63 39 -6 23 -3 28 22 37 44 16 83 15 77
-3z m325 -64 c0 -46 0 -46 -14 4 -18 64 -18 70 0 55 10 -8 15 -29 14 -59z
m-2389 -17 c-15 -38 -12 -50 6 -28 14 17 15 17 10 1 -3 -10 -6 -23 -6 -28 0
-5 -9 -9 -21 -9 -11 0 -17 -4 -14 -10 3 -5 2 -10 -4 -10 -17 0 -22 18 -7 23 9
4 12 14 9 27 -3 12 2 29 12 40 24 26 26 25 15 -6z m1520 16 c0 -6 -7 -25 -16
-42 -12 -23 -18 -28 -27 -19 -9 9 -6 16 12 30 13 10 21 23 17 30 -4 6 -2 11 3
11 6 0 11 -5 11 -10z m70 -506 c25 -15 25 -15 0 -10 -14 3 -38 6 -55 6 -23 0
-27 3 -15 10 21 14 41 12 70 -6z m-322 -240 c14 -4 22 -14 22 -29 0 -26 34
-60 53 -52 7 2 21 -1 32 -9 17 -13 14 -14 -31 -10 -54 5 -134 37 -155 62 -11
14 -10 18 6 30 20 15 38 17 73 8z m682 -30 c0 -8 -8 -17 -17 -20 -10 -3 -31
-12 -46 -21 -35 -18 -40 -14 -24 20 19 42 87 58 87 21z"/>
</g>
<g>
<path d="M1800 4596 c-12 -30 -20 -59 -17 -63 7 -12 -23 -74 -33 -68 -5 3 -6
-5 -3 -17 4 -19 3 -20 -6 -8 -8 11 -11 12 -11 2 0 -7 -5 -10 -11 -6 -8 4 -9
-1 -4 -17 12 -41 22 -42 35 -5 15 46 30 56 20 13 -9 -36 -85 -251 -94 -266 -4
-5 -1 -11 5 -13 8 -3 7 -13 -5 -35 -9 -18 -16 -40 -15 -50 0 -16 1 -16 9 2 7
16 9 17 9 3 1 -9 -2 -24 -5 -33 -5 -13 -8 -14 -15 -3 -6 9 -10 3 -15 -19 -4
-19 -11 -30 -17 -26 -6 4 -8 -3 -3 -20 4 -16 1 -29 -6 -33 -8 -5 -9 -2 -5 10
4 10 3 15 -3 11 -6 -3 -10 -15 -10 -25 0 -10 -5 -22 -11 -25 -6 -4 -8 -14 -5
-22 3 -7 -8 -44 -25 -81 -17 -37 -33 -80 -34 -97 -2 -16 -10 -57 -19 -90 -13
-48 -23 -186 -11 -150 2 6 15 50 30 98 15 49 29 86 32 83 3 -3 0 -19 -6 -37
-6 -18 -11 -39 -10 -48 1 -12 3 -10 8 4 4 11 12 31 18 45 19 42 26 64 24 77
-1 6 3 14 8 17 19 12 20 -12 2 -50 -23 -49 -24 -92 -1 -121 17 -22 18 -22 23
-3 3 11 1 20 -3 20 -9 0 17 96 48 178 11 28 18 52 16 52 -2 0 7 25 21 56 26
58 32 80 15 54 -6 -9 -10 -10 -10 -3 0 7 6 16 13 20 18 11 43 62 72 148 33 97
50 136 57 129 9 -9 20 34 12 47 -4 7 -3 9 3 6 6 -4 13 3 16 15 8 29 3 33 -16
13 -24 -23 -26 -19 -12 23 16 46 29 126 16 97 -5 -11 -15 -40 -22 -64 -7 -24
-19 -50 -27 -57 -7 -8 -11 -14 -7 -14 3 0 -1 -13 -10 -30 -9 -16 -17 -30 -18
-30 -7 0 0 80 8 87 4 5 5 2 0 -6 -5 -9 -4 -12 3 -7 7 4 12 16 12 27 0 10 7 19
15 19 18 0 19 12 3 28 -8 8 -8 12 -1 12 6 0 10 11 9 24 -1 30 -16 19 -20 -15
-5 -35 -16 -57 -32 -63 -10 -4 -12 -1 -5 12 17 34 41 93 41 101 0 5 8 26 17
47 9 22 16 43 15 47 -2 5 2 6 7 2 14 -8 31 29 30 67 -1 33 -1 33 -14 3 -7 -16
-10 -36 -7 -44 3 -9 1 -12 -6 -7 -8 5 -19 -9 -32 -41 -11 -26 -24 -55 -29 -63
-5 -9 -12 -30 -16 -48 -3 -18 -11 -32 -16 -32 -12 0 -6 24 28 105 14 33 27 71
28 85 2 14 4 25 5 25 1 0 3 12 5 28 2 18 0 25 -7 21 -7 -5 -9 2 -4 20 11 43 0
30 -24 -28z m-46 -439 c-9 -26 -18 -47 -20 -47 -6 0 8 63 18 83 17 33 18 11 2
-36z m-77 -294 c0 -10 -9 -31 -19 -48 -12 -20 -18 -24 -18 -13 0 9 5 20 10 23
6 4 8 11 5 16 -4 5 -2 9 4 9 6 0 8 7 5 15 -4 8 -2 15 3 15 5 0 10 -8 10 -17z
m-19 -97 c-8 -6 -20 -20 -26 -31 -10 -18 -11 -18 -12 -2 0 11 -4 15 -12 11 -7
-4 -8 -3 -4 5 4 6 11 9 16 6 4 -3 10 1 13 8 3 8 13 14 22 14 15 0 15 -2 3 -11z"/>
</g>
<g>
<path d="M1670 4598 c-6 -18 -18 -45 -26 -60 -9 -16 -11 -28 -6 -28 11 0 57
108 50 116 -3 2 -11 -10 -18 -28z"/>
</g>
<g>
<path d="M1773 4603 c-3 -10 -15 -30 -25 -45 -11 -16 -16 -33 -13 -39 4 -6 12
-1 19 13 17 32 36 88 30 88 -2 0 -7 -8 -11 -17z"/>
</g>
<g>
<path d="M1961 4404 c-12 -26 -20 -49 -17 -52 3 -2 15 17 26 43 27 62 20 68
-9 9z"/>
</g>
<g>
<path d="M2002 4418 c-5 -7 -17 -28 -26 -45 -9 -18 -23 -33 -30 -33 -15 0 -68
-119 -71 -160 -4 -39 -4 -40 -16 -37 -6 1 -14 -5 -16 -13 -4 -13 -3 -13 6 0
14 20 14 0 0 -37 -9 -24 -8 -26 3 -13 8 8 20 33 28 55 7 22 20 45 28 51 12 9
12 15 2 35 -12 21 -12 23 2 11 14 -11 17 -8 26 18 6 16 9 30 7 30 -2 0 14 34
36 75 37 71 44 91 21 63z"/>
</g>
<g>
<path d="M1901 4352 c-14 -29 -21 -55 -18 -59 9 -8 14 -2 19 22 1 11 9 25 16
31 8 5 12 21 10 34 -2 20 -7 16 -27 -28z"/>
</g>
<g>
<path d="M1690 4380 c0 -5 -5 -9 -12 -7 -10 2 -21 -21 -34 -70 -2 -7 -12 -13
-22 -13 -13 0 -24 -11 -32 -32 -6 -18 -22 -57 -36 -86 -13 -29 -21 -59 -18
-65 4 -7 4 -9 -1 -5 -8 8 -13 1 -43 -53 -13 -23 -13 -23 7 1 11 14 21 22 21
18 0 -9 -56 -116 -88 -168 -25 -40 -31 -77 -8 -47 8 10 17 18 21 17 4 -1 9 1
12 4 4 3 1 6 -5 6 -6 0 7 30 29 67 21 37 39 73 39 80 0 7 9 27 20 45 11 18 20
43 20 56 0 12 4 22 10 22 5 0 12 17 16 38 4 20 13 48 20 62 13 25 13 25 14 -5
2 -29 2 -28 17 13 8 23 21 42 28 42 7 0 17 15 20 33 4 17 12 38 17 45 7 8 7
12 -1 12 -6 0 -11 -4 -11 -10z"/>
</g>
<g>
<path d="M1980 4129 c0 -13 -4 -18 -12 -13 -8 5 -8 1 1 -10 14 -16 63 -46 77
-46 3 0 3 7 0 16 -4 9 -2 22 4 29 8 9 4 17 -14 29 -34 22 -56 20 -56 -5z"/>
</g>
<g>
<path d="M1592 4033 c-23 -62 -24 -69 -10 -53 7 8 20 20 28 28 8 7 9 11 3 7
-7 -3 -13 -2 -13 4 0 5 6 11 13 14 9 3 9 8 1 16 -8 9 -14 5 -22 -16z"/>
</g>
<g>
<path d="M1820 4034 c-6 -16 -13 -35 -15 -41 -2 -7 0 -13 5 -13 10 0 32 71 25
78 -2 3 -9 -8 -15 -24z"/>
</g>
<g>
<path d="M1536 3885 c-9 -9 -16 -22 -16 -28 0 -7 -9 -23 -20 -37 -11 -14 -20
-35 -20 -47 0 -12 -4 -23 -9 -25 -5 -1 -12 -25 -15 -53 -4 -33 -3 -42 3 -25 9
26 38 93 77 174 26 53 26 66 0 41z"/>
</g>
</g>
</svg>
